<svg width="24" height="24" viewBox="0 0 24 24" fill="none" xmlns="http://www.w3.org/2000/svg">
<path fill-rule="evenodd" clip-rule="evenodd" d="M4 7C4 4.23858 6.23858 2 9 2C10.1256 2 11.1643 2.37194 12 2.99963C12.0613 3.04565 12.1214 3.09304 12.1805 3.14176C13.2917 4.05883 14 5.4467 14 7C14 8.63582 13.2144 10.0882 12 11.0004C11.1643 11.6281 10.1256 12 9 12C6.23858 12 4 9.76142 4 7ZM1.46447 15.4645C2.40215 14.5268 3.67392 14 5 14H11H13C14.3261 14 15.5979 14.5268 16.5355 15.4645C17.4732 16.4021 18 17.6739 18 19V21.5C18 21.7761 17.7761 22 17.5 22H17H16H15.1213H13H11H9.35938H8H7.83984H7H6.49999H5H3.35938H2H1.83984H1H0.499989C0.223846 22 0 21.7761 0 21.5V19C0 17.6739 0.526784 16.4021 1.46447 15.4645ZM21.1213 22H20.4585C20.4858 21.8374 20.5 21.6704 20.5 21.5V19C20.5 17.1504 19.8168 15.3713 18.5902 14H19C20.3261 14 21.5979 14.5268 22.5355 15.4645C23.4732 16.4021 24 17.6739 24 19V21.5C24 21.7761 23.7761 22 23.5 22H23H22H21.1213ZM20 7C20 9.55887 18.0778 11.6688 15.5985 11.9645C15.3453 11.871 15.087 11.7911 14.8245 11.7253C15.8722 10.4356 16.5 8.7911 16.5 7C16.5 5.08656 15.7835 3.34048 14.6041 2.01545C14.7347 2.00521 14.8667 2 15 2C17.7614 2 20 4.23858 20 7Z" fill="#0F131A"/>
</svg>
