<svg xmlns="http://www.w3.org/2000/svg" width="20" height="20" fill="none"><path d="M1.275 20h16.46a1.28 1.28 0 0 0 1.274-1.274V1.274A1.28 1.28 0 0 0 17.736 0H1.275A1.28 1.28 0 0 0 0 1.274v17.453A1.28 1.28 0 0 0 1.275 20zM15.9 1.558c0-.21.173-.382.382-.382h1.195a.38.38 0 0 1 .382.382v1.23a.38.38 0 0 1-.382.382h-1.195c-.21 0-.382-.17-.382-.382v-1.23zm0 3.13c0-.21.173-.382.382-.382h1.195c.21 0 .382.17.382.382v1.23c0 .21-.17.383-.382.383h-1.195c-.21 0-.382-.172-.382-.383v-1.23zm0 3.133c0-.21.173-.383.382-.383h1.195c.21 0 .382.172.382.383v1.23c0 .21-.17.382-.382.382h-1.195c-.21 0-.382-.172-.382-.382V7.82zm0 3.13c0-.21.173-.383.382-.383h1.195c.21 0 .382.172.382.383v1.23a.38.38 0 0 1-.382.382h-1.195c-.21 0-.382-.17-.382-.382v-1.23zm0 3.13c0-.21.173-.382.382-.382h1.195a.38.38 0 0 1 .382.382v1.232a.38.38 0 0 1-.382.381h-1.195c-.21 0-.382-.17-.382-.38V14.08zm0 3.13c0-.2.173-.382.382-.382h1.195c.21 0 .382.172.382.382v1.233c0 .21-.17.38-.382.38h-1.195c-.21 0-.382-.172-.382-.38v-1.233zM4.42 2.482c0-.21.172-.382.383-.382h9.405c.2 0 .382.17.382.382v6.093c0 .21-.172.383-.382.383H4.804c-.21 0-.383-.174-.383-.383 0 0 0-6.093 0-6.093zm0 9.396c0-.2.172-.38.383-.38h9.405c.2 0 .382.17.382.38V17.5c0 .2-.172.382-.382.382H4.804c-.21 0-.383-.172-.383-.382 0 0 0-5.633 0-5.633zM1.15 1.558c0-.21.172-.382.382-.382h1.195c.2 0 .38.17.38.382v1.23c0 .21-.17.382-.38.382H1.532c-.21 0-.382-.17-.382-.382v-1.23zm0 3.13c0-.21.172-.382.382-.382h1.195c.2 0 .38.17.38.382v1.23c0 .21-.17.383-.38.383H1.532c-.21 0-.382-.172-.382-.383v-1.23zm0 3.133c0-.21.172-.383.382-.383h1.195c.2 0 .38.172.38.383v1.23c0 .21-.17.382-.38.382H1.532c-.21 0-.382-.172-.382-.382V7.82zm0 3.13c0-.21.172-.383.382-.383h1.195c.2 0 .38.172.38.383v1.23c0 .21-.17.382-.38.382H1.532c-.21 0-.382-.17-.382-.382v-1.23zm0 3.13c0-.21.172-.382.382-.382h1.195a.38.38 0 0 1 .381.382v1.232c0 .2-.17.38-.38.38H1.532c-.21 0-.382-.17-.382-.38V14.08zm0 3.13c0-.2.172-.382.382-.382h1.195c.2 0 .38.172.38.382v1.233c0 .21-.17.38-.38.38H1.532c-.21 0-.382-.172-.382-.38v-1.233z" fill="#fff"/></svg>